<?xml version="1.0" encoding="UTF-8" standalone="no"?>
<!-- Generator: Gravit.io -->
<svg xmlns="http://www.w3.org/2000/svg" xmlns:xlink="http://www.w3.org/1999/xlink" style="isolation:isolate" viewBox="0 0 1920 1080" width="1920" height="1080"><defs><clipPath id="_clipPath_QfSdap0R7zPcnTGtJFzJPgfxqLwezuNJ"><rect width="1920" height="1080"/></clipPath></defs><g clip-path="url(#_clipPath_QfSdap0R7zPcnTGtJFzJPgfxqLwezuNJ)"><clipPath id="_clipPath_w00hEMEDyn07exusMeb53qtFIzLCbhOS"><path d=" M 0 1080 L 1920 1080 L 1920 0 L 0 0 L 0 1080 Z " fill="rgb(255,255,255)"/></clipPath><g clip-path="url(#_clipPath_w00hEMEDyn07exusMeb53qtFIzLCbhOS)"><path d=" M 0 1080 L 1920 1080 L 1920 0 L 0 0 L 0 1080 Z " fill="rgb(254,255,254)"/><path d=" M 752.577 184.878 L 795.969 211.772 L 795.969 221.49 L 753.029 248.271 L 747.944 241.265 L 787.833 216.631 L 747.944 192.11 L 752.577 184.878 L 752.577 184.878 Z  M 861.622 202.054 L 861.622 210.19 L 817.778 210.19 L 817.778 202.054 L 861.622 202.054 L 861.622 202.054 Z  M 861.622 223.524 L 861.622 231.66 L 817.778 231.66 L 817.778 223.524 L 861.622 223.524 L 861.622 223.524 Z  M 522.622 202.054 L 522.622 210.19 L 478.778 210.19 L 478.778 202.054 L 522.622 202.054 L 522.622 202.054 Z  M 522.622 223.524 L 522.622 231.66 L 478.778 231.66 L 478.778 223.524 L 522.622 223.524 L 522.622 223.524 Z  M 590.422 202.054 L 590.422 210.19 L 546.578 210.19 L 546.578 202.054 L 590.422 202.054 L 590.422 202.054 Z  M 590.422 223.524 L 590.422 231.66 L 546.578 231.66 L 546.578 223.524 L 590.422 223.524 L 590.422 223.524 Z  M 658.222 202.054 L 658.222 210.19 L 614.378 210.19 L 614.378 202.054 L 658.222 202.054 L 658.222 202.054 Z  M 658.222 223.524 L 658.222 231.66 L 614.378 231.66 L 614.378 223.524 L 658.222 223.524 L 658.222 223.524 Z  M 302.385 174.143 L 301.368 226.349 L 292.893 226.349 L 291.763 174.143 L 302.385 174.143 L 302.385 174.143 Z  M 297.187 238.101 L 297.187 238.101 Q 300.464 238.101 302.611 240.305 L 302.611 240.305 L 302.611 240.305 Q 304.758 242.508 304.758 245.672 L 304.758 245.672 L 304.758 245.672 Q 304.758 248.949 302.611 251.096 L 302.611 251.096 L 302.611 251.096 Q 300.464 253.243 297.187 253.243 L 297.187 253.243 L 297.187 253.243 Q 294.023 253.243 291.819 251.04 L 291.819 251.04 L 291.819 251.04 Q 289.616 248.836 289.616 245.672 L 289.616 245.672 L 289.616 245.672 Q 289.616 242.508 291.819 240.305 L 291.819 240.305 L 291.819 240.305 Q 294.023 238.101 297.187 238.101 L 297.187 238.101 L 297.187 238.101 Z  M 387.022 202.054 L 387.022 210.19 L 343.178 210.19 L 343.178 202.054 L 387.022 202.054 L 387.022 202.054 Z  M 387.022 223.524 L 387.022 231.66 L 343.178 231.66 L 343.178 223.524 L 387.022 223.524 L 387.022 223.524 Z  M 115.822 202.054 L 115.822 210.19 L 71.978 210.19 L 71.978 202.054 L 115.822 202.054 L 115.822 202.054 Z  M 115.822 223.524 L 115.822 231.66 L 71.978 231.66 L 71.978 223.524 L 115.822 223.524 L 115.822 223.524 Z  M 183.622 202.054 L 183.622 210.19 L 139.778 210.19 L 139.778 202.054 L 183.622 202.054 L 183.622 202.054 Z  M 183.622 223.524 L 183.622 231.66 L 139.778 231.66 L 139.778 223.524 L 183.622 223.524 L 183.622 223.524 Z " fill-rule="evenodd" fill="rgb(0,0,0)"/><path d=" M 742.281 323.809 L 742.281 426.526 L 733.806 426.526 L 733.806 323.809 L 742.281 323.809 L 742.281 323.809 Z  M 810.081 323.809 L 810.081 426.526 L 801.606 426.526 L 801.606 323.809 L 810.081 323.809 L 810.081 323.809 Z  M 532.327 336.013 L 532.327 336.013 Q 537.864 336.013 542.328 337.821 L 542.328 337.821 L 542.328 337.821 Q 546.791 339.629 551.198 344.488 L 551.198 344.488 L 545.548 349.686 L 545.548 349.686 Q 542.497 346.296 539.39 344.714 L 539.39 344.714 L 539.39 344.714 Q 536.282 343.132 532.214 343.132 L 532.214 343.132 L 532.214 343.132 Q 526.338 343.132 523.287 346.296 L 523.287 346.296 L 523.287 346.296 Q 520.236 349.46 520.236 354.658 L 520.236 354.658 L 520.236 354.658 Q 520.236 358.048 522.101 361.043 L 522.101 361.043 L 522.101 361.043 Q 523.965 364.037 527.185 365.789 L 527.185 365.789 L 527.185 365.789 Q 530.406 367.54 534.248 367.54 L 534.248 367.54 L 565.662 367.54 L 565.662 375.111 L 555.492 375.111 L 555.492 405.847 L 555.492 405.847 Q 552.102 410.028 546.452 413.136 L 546.452 413.136 L 546.452 413.136 Q 540.802 416.243 532.101 416.243 L 532.101 416.243 L 532.101 416.243 Q 523.739 416.243 518.033 412.966 L 518.033 412.966 L 518.033 412.966 Q 512.326 409.689 509.614 404.378 L 509.614 404.378 L 509.614 404.378 Q 506.902 399.067 506.902 392.965 L 506.902 392.965 L 506.902 392.965 Q 506.902 384.264 511.478 378.671 L 511.478 378.671 L 511.478 378.671 Q 516.055 373.077 524.53 371.269 L 524.53 371.269 L 524.53 370.93 L 524.53 370.93 Q 517.411 369.235 514.19 364.828 L 514.19 364.828 L 514.19 364.828 Q 510.97 360.421 510.97 354.658 L 510.97 354.658 L 510.97 354.658 Q 510.97 349.686 513.569 345.392 L 513.569 345.392 L 513.569 345.392 Q 516.168 341.098 521.027 338.556 L 521.027 338.556 L 521.027 338.556 Q 525.886 336.013 532.327 336.013 L 532.327 336.013 L 532.327 336.013 Z  M 546.791 375.111 L 532.779 375.111 L 532.779 375.111 Q 527.242 375.111 523.513 377.71 L 523.513 377.71 L 523.513 377.71 Q 519.784 380.309 517.976 384.321 L 517.976 384.321 L 517.976 384.321 Q 516.168 388.332 516.168 392.626 L 516.168 392.626 L 516.168 392.626 Q 516.168 399.406 520.236 403.983 L 520.236 403.983 L 520.236 403.983 Q 524.304 408.559 532.327 408.559 L 532.327 408.559 L 532.327 408.559 Q 537.073 408.559 540.802 407.034 L 540.802 407.034 L 540.802 407.034 Q 544.531 405.508 546.791 402.683 L 546.791 402.683 L 546.791 375.111 L 546.791 375.111 Z  M 600.127 336.013 L 600.127 336.013 Q 605.664 336.013 610.127 337.821 L 610.127 337.821 L 610.127 337.821 Q 614.591 339.629 618.998 344.488 L 618.998 344.488 L 613.348 349.686 L 613.348 349.686 Q 610.297 346.296 607.19 344.714 L 607.19 344.714 L 607.19 344.714 Q 604.082 343.132 600.014 343.132 L 600.014 343.132 L 600.014 343.132 Q 594.138 343.132 591.087 346.296 L 591.087 346.296 L 591.087 346.296 Q 588.036 349.46 588.036 354.658 L 588.036 354.658 L 588.036 354.658 Q 588.036 358.048 589.901 361.043 L 589.901 361.043 L 589.901 361.043 Q 591.765 364.037 594.986 365.789 L 594.986 365.789 L 594.986 365.789 Q 598.206 367.54 602.048 367.54 L 602.048 367.54 L 633.462 367.54 L 633.462 375.111 L 623.292 375.111 L 623.292 405.847 L 623.292 405.847 Q 619.902 410.028 614.252 413.136 L 614.252 413.136 L 614.252 413.136 Q 608.602 416.243 599.901 416.243 L 599.901 416.243 L 599.901 416.243 Q 591.539 416.243 585.833 412.966 L 585.833 412.966 L 585.833 412.966 Q 580.126 409.689 577.414 404.378 L 577.414 404.378 L 577.414 404.378 Q 574.702 399.067 574.702 392.965 L 574.702 392.965 L 574.702 392.965 Q 574.702 384.264 579.278 378.671 L 579.278 378.671 L 579.278 378.671 Q 583.855 373.077 592.33 371.269 L 592.33 371.269 L 592.33 370.93 L 592.33 370.93 Q 585.211 369.235 581.99 364.828 L 581.99 364.828 L 581.99 364.828 Q 578.77 360.421 578.77 354.658 L 578.77 354.658 L 578.77 354.658 Q 578.77 349.686 581.369 345.392 L 581.369 345.392 L 581.369 345.392 Q 583.968 341.098 588.827 338.556 L 588.827 338.556 L 588.827 338.556 Q 593.686 336.013 600.127 336.013 L 600.127 336.013 L 600.127 336.013 Z  M 614.591 375.111 L 600.579 375.111 L 600.579 375.111 Q 595.042 375.111 591.313 377.71 L 591.313 377.71 L 591.313 377.71 Q 587.584 380.309 585.776 384.321 L 585.776 384.321 L 585.776 384.321 Q 583.968 388.332 583.968 392.626 L 583.968 392.626 L 583.968 392.626 Q 583.968 399.406 588.036 403.983 L 588.036 403.983 L 588.036 403.983 Q 592.104 408.559 600.127 408.559 L 600.127 408.559 L 600.127 408.559 Q 604.873 408.559 608.602 407.034 L 608.602 407.034 L 608.602 407.034 Q 612.331 405.508 614.591 402.683 L 614.591 402.683 L 614.591 375.111 L 614.591 375.111 Z  M 353.222 365.054 L 353.222 373.19 L 309.378 373.19 L 309.378 365.054 L 353.222 365.054 L 353.222 365.054 Z  M 353.222 386.524 L 353.222 394.66 L 309.378 394.66 L 309.378 386.524 L 353.222 386.524 L 353.222 386.524 Z  M 379.777 347.878 L 423.169 374.772 L 423.169 384.49 L 380.229 411.271 L 375.144 404.265 L 415.033 379.631 L 375.144 355.11 L 379.777 347.878 L 379.777 347.878 Z  M 108.125 383.699 L 108.125 375.563 L 147.675 375.563 L 147.675 383.699 L 108.125 383.699 L 108.125 383.699 Z  M 176.377 347.878 L 219.769 374.772 L 219.769 384.49 L 176.829 411.271 L 171.744 404.265 L 211.633 379.631 L 171.744 355.11 L 176.377 347.878 L 176.377 347.878 Z " fill-rule="evenodd" fill="rgb(0,0,0)"/><path d=" M 704.1 490.651 L 704.1 490.651 Q 707.264 490.651 709.185 492.516 L 709.185 492.516 L 709.185 492.516 Q 711.106 494.38 711.106 497.318 L 711.106 497.318 L 711.106 497.318 Q 711.106 500.256 709.185 502.121 L 709.185 502.121 L 709.185 502.121 Q 707.264 503.985 704.1 503.985 L 704.1 503.985 L 704.1 503.985 Q 701.049 503.985 699.185 502.121 L 699.185 502.121 L 699.185 502.121 Q 697.32 500.256 697.32 497.318 L 697.32 497.318 L 697.32 497.318 Q 697.32 494.38 699.185 492.516 L 699.185 492.516 L 699.185 492.516 Q 701.049 490.651 704.1 490.651 L 704.1 490.651 L 704.1 490.651 Z  M 711.671 518.449 L 711.671 570.429 L 728.395 570.429 L 728.395 578 L 683.873 578 L 683.873 570.429 L 702.179 570.429 L 702.179 526.02 L 684.438 526.02 L 684.438 518.449 L 711.671 518.449 L 711.671 518.449 Z  M 776.194 522.065 L 776.194 538.902 L 792.692 538.902 L 792.692 546.812 L 776.194 546.812 L 776.194 563.649 L 767.38 563.649 L 767.38 546.812 L 751.108 546.812 L 751.108 538.902 L 767.38 538.902 L 767.38 522.065 L 776.194 522.065 L 776.194 522.065 Z  M 843.994 522.065 L 843.994 538.902 L 860.492 538.902 L 860.492 546.812 L 843.994 546.812 L 843.994 563.649 L 835.18 563.649 L 835.18 546.812 L 818.908 546.812 L 818.908 538.902 L 835.18 538.902 L 835.18 522.065 L 843.994 522.065 L 843.994 522.065 Z  M 452.336 510.878 L 456.969 518.11 L 417.08 542.631 L 456.969 567.378 L 451.884 574.271 L 408.944 547.49 L 408.944 537.659 L 452.336 510.878 L 452.336 510.878 Z  M 480.473 589.639 L 472.789 586.249 L 521.04 486.583 L 528.611 490.199 L 480.473 589.639 L 480.473 589.639 Z  M 549.177 510.878 L 592.569 537.772 L 592.569 547.49 L 549.629 574.271 L 544.544 567.265 L 584.433 542.631 L 544.544 518.11 L 549.177 510.878 L 549.177 510.878 Z  M 93.9 498.9 L 93.9 498.9 Q 106.33 498.9 112.828 509.24 L 112.828 509.24 L 112.828 509.24 Q 119.325 519.579 119.325 539.015 L 119.325 539.015 L 119.325 539.015 Q 119.325 558.564 112.828 568.904 L 112.828 568.904 L 112.828 568.904 Q 106.33 579.243 93.9 579.243 L 93.9 579.243 L 93.9 579.243 Q 81.47 579.243 74.973 568.904 L 74.973 568.904 L 74.973 568.904 Q 68.475 558.564 68.475 539.015 L 68.475 539.015 L 68.475 539.015 Q 68.475 519.579 74.973 509.24 L 74.973 509.24 L 74.973 509.24 Q 81.47 498.9 93.9 498.9 L 93.9 498.9 L 93.9 498.9 Z  M 93.9 506.584 L 93.9 506.584 Q 78.419 506.584 78.419 539.015 L 78.419 539.015 L 78.419 539.015 Q 78.419 571.559 93.9 571.559 L 93.9 571.559 L 93.9 571.559 Q 109.381 571.559 109.381 539.015 L 109.381 539.015 L 109.381 539.015 Q 109.381 506.584 93.9 506.584 L 93.9 506.584 L 93.9 506.584 Z  M 93.9 531.67 L 93.9 531.67 Q 97.064 531.67 99.211 533.817 L 99.211 533.817 L 99.211 533.817 Q 101.358 535.964 101.358 539.015 L 101.358 539.015 L 101.358 539.015 Q 101.358 542.179 99.211 544.326 L 99.211 544.326 L 99.211 544.326 Q 97.064 546.473 93.9 546.473 L 93.9 546.473 L 93.9 546.473 Q 90.736 546.473 88.646 544.326 L 88.646 544.326 L 88.646 544.326 Q 86.555 542.179 86.555 539.015 L 86.555 539.015 L 86.555 539.015 Q 86.555 535.964 88.646 533.817 L 88.646 533.817 L 88.646 533.817 Q 90.736 531.67 93.9 531.67 L 93.9 531.67 L 93.9 531.67 Z  M 144.976 578 L 134.128 578 L 156.05 546.586 L 136.727 518.449 L 148.027 518.449 L 161.813 540.597 L 175.712 518.449 L 186.673 518.449 L 167.35 546.134 L 189.272 578 L 177.746 578 L 161.361 552.462 L 144.976 578 L 144.976 578 Z  M 221.025 508.279 L 221.025 535.512 L 251.535 535.512 L 251.535 543.422 L 221.025 543.422 L 221.025 578 L 211.194 578 L 211.194 500.143 L 257.072 500.143 L 255.942 508.279 L 221.025 508.279 L 221.025 508.279 Z  M 288.825 508.279 L 288.825 535.512 L 319.335 535.512 L 319.335 543.422 L 288.825 543.422 L 288.825 578 L 278.994 578 L 278.994 500.143 L 324.872 500.143 L 323.742 508.279 L 288.825 508.279 L 288.825 508.279 Z " fill-rule="evenodd" fill="rgb(0,0,0)"/><path d=" M 742.646 681.449 L 740.951 700.094 L 758.127 692.975 L 760.952 702.015 L 743.098 706.083 L 755.528 719.643 L 747.844 725.519 L 738.013 709.699 L 728.86 725.858 L 720.837 720.434 L 732.815 706.083 L 714.848 702.015 L 717.673 692.975 L 734.736 700.094 L 733.154 681.449 L 742.646 681.449 L 742.646 681.449 Z  M 810.446 681.449 L 808.751 700.094 L 825.927 692.975 L 828.752 702.015 L 810.898 706.083 L 823.328 719.643 L 815.644 725.519 L 805.813 709.699 L 796.66 725.858 L 788.637 720.434 L 800.615 706.083 L 782.648 702.015 L 785.473 692.975 L 802.536 700.094 L 800.954 681.449 L 810.446 681.449 L 810.446 681.449 Z  M 878.246 681.449 L 876.551 700.094 L 893.727 692.975 L 896.552 702.015 L 878.698 706.083 L 891.128 719.643 L 883.444 725.519 L 873.613 709.699 L 864.46 725.858 L 856.437 720.434 L 868.415 706.083 L 850.448 702.015 L 853.273 692.975 L 870.336 700.094 L 868.754 681.449 L 878.246 681.449 L 878.246 681.449 Z  M 484.554 689.472 L 481.277 714.558 L 490.43 714.558 L 490.43 721.79 L 480.147 721.79 L 477.774 741 L 469.751 741 L 472.237 721.79 L 455.852 721.79 L 453.253 741 L 445.23 741 L 447.716 721.79 L 438.789 721.79 L 438.789 714.558 L 448.62 714.558 L 452.123 689.472 L 442.97 689.472 L 442.97 682.014 L 453.027 682.014 L 455.626 663.143 L 463.649 663.143 L 461.05 682.014 L 477.548 682.014 L 480.147 663.143 L 488.17 663.143 L 485.571 682.014 L 494.611 682.014 L 494.611 689.472 L 484.554 689.472 L 484.554 689.472 Z  M 456.756 714.558 L 473.141 714.558 L 476.644 689.472 L 460.033 689.472 L 456.756 714.558 L 456.756 714.558 Z  M 552.354 689.472 L 549.077 714.558 L 558.23 714.558 L 558.23 721.79 L 547.947 721.79 L 545.574 741 L 537.551 741 L 540.037 721.79 L 523.652 721.79 L 521.053 741 L 513.03 741 L 515.516 721.79 L 506.589 721.79 L 506.589 714.558 L 516.42 714.558 L 519.923 689.472 L 510.77 689.472 L 510.77 682.014 L 520.827 682.014 L 523.426 663.143 L 531.449 663.143 L 528.85 682.014 L 545.348 682.014 L 547.947 663.143 L 555.97 663.143 L 553.371 682.014 L 562.411 682.014 L 562.411 689.472 L 552.354 689.472 L 552.354 689.472 Z  M 524.556 714.558 L 540.941 714.558 L 544.444 689.472 L 527.833 689.472 L 524.556 714.558 L 524.556 714.558 Z  M 620.154 689.472 L 616.877 714.558 L 626.03 714.558 L 626.03 721.79 L 615.747 721.79 L 613.374 741 L 605.351 741 L 607.837 721.79 L 591.452 721.79 L 588.853 741 L 580.83 741 L 583.316 721.79 L 574.389 721.79 L 574.389 714.558 L 584.22 714.558 L 587.723 689.472 L 578.57 689.472 L 578.57 682.014 L 588.627 682.014 L 591.226 663.143 L 599.249 663.143 L 596.65 682.014 L 613.148 682.014 L 615.747 663.143 L 623.77 663.143 L 621.171 682.014 L 630.211 682.014 L 630.211 689.472 L 620.154 689.472 L 620.154 689.472 Z  M 592.356 714.558 L 608.741 714.558 L 612.244 689.472 L 595.633 689.472 L 592.356 714.558 L 592.356 714.558 Z  M 268.046 681.449 L 266.351 700.094 L 283.527 692.975 L 286.352 702.015 L 268.498 706.083 L 280.928 719.643 L 273.244 725.519 L 263.413 709.699 L 254.26 725.858 L 246.237 720.434 L 258.215 706.083 L 240.248 702.015 L 243.073 692.975 L 260.136 700.094 L 258.554 681.449 L 268.046 681.449 L 268.046 681.449 Z  M 310.873 752.639 L 303.189 749.249 L 351.44 649.583 L 359.011 653.199 L 310.873 752.639 L 310.873 752.639 Z  M 39.673 752.639 L 31.989 749.249 L 80.24 649.583 L 87.811 653.199 L 39.673 752.639 L 39.673 752.639 Z  M 132.446 681.449 L 130.751 700.094 L 147.927 692.975 L 150.752 702.015 L 132.898 706.083 L 145.328 719.643 L 137.644 725.519 L 127.813 709.699 L 118.66 725.858 L 110.637 720.434 L 122.615 706.083 L 104.648 702.015 L 107.473 692.975 L 124.536 700.094 L 122.954 681.449 L 132.446 681.449 L 132.446 681.449 Z " fill-rule="evenodd" fill="rgb(0,0,0)"/><path d=" M 725.683 904 L 712.236 904 L 704.439 860.382 L 696.077 904 L 682.969 904 L 672.234 844.449 L 681.839 844.449 L 689.523 898.124 L 699.015 852.02 L 710.202 852.02 L 719.129 898.124 L 726.813 844.449 L 735.966 844.449 L 725.683 904 L 725.683 904 Z  M 793.483 904 L 780.036 904 L 772.239 860.382 L 763.877 904 L 750.769 904 L 740.034 844.449 L 749.639 844.449 L 757.323 898.124 L 766.815 852.02 L 778.002 852.02 L 786.929 898.124 L 794.613 844.449 L 803.766 844.449 L 793.483 904 L 793.483 904 Z  M 861.283 904 L 847.836 904 L 840.039 860.382 L 831.677 904 L 818.569 904 L 807.834 844.449 L 817.439 844.449 L 825.123 898.124 L 834.615 852.02 L 845.802 852.02 L 854.729 898.124 L 862.413 844.449 L 871.566 844.449 L 861.283 904 L 861.283 904 Z  M 413.125 872.699 L 413.125 864.563 L 452.675 864.563 L 452.675 872.699 L 413.125 872.699 L 413.125 872.699 Z  M 480.925 872.699 L 480.925 864.563 L 520.475 864.563 L 520.475 872.699 L 480.925 872.699 L 480.925 872.699 Z  M 549.177 836.878 L 592.569 863.772 L 592.569 873.49 L 549.629 900.271 L 544.544 893.265 L 584.433 868.631 L 544.544 844.11 L 549.177 836.878 L 549.177 836.878 Z  M 113.336 836.878 L 117.969 844.11 L 78.08 868.631 L 117.969 893.378 L 112.884 900.271 L 69.944 873.49 L 69.944 863.659 L 113.336 836.878 L 113.336 836.878 Z  M 166.785 826.143 L 165.768 878.349 L 157.293 878.349 L 156.163 826.143 L 166.785 826.143 L 166.785 826.143 Z  M 161.587 890.101 L 161.587 890.101 Q 164.864 890.101 167.011 892.305 L 167.011 892.305 L 167.011 892.305 Q 169.158 894.508 169.158 897.672 L 169.158 897.672 L 169.158 897.672 Q 169.158 900.949 167.011 903.096 L 167.011 903.096 L 167.011 903.096 Q 164.864 905.243 161.587 905.243 L 161.587 905.243 L 161.587 905.243 Q 158.423 905.243 156.219 903.04 L 156.219 903.04 L 156.219 903.04 Q 154.016 900.836 154.016 897.672 L 154.016 897.672 L 154.016 897.672 Q 154.016 894.508 156.219 892.305 L 156.219 892.305 L 156.219 892.305 Q 158.423 890.101 161.587 890.101 L 161.587 890.101 L 161.587 890.101 Z  M 209.725 872.699 L 209.725 864.563 L 249.275 864.563 L 249.275 872.699 L 209.725 872.699 L 209.725 872.699 Z  M 277.525 872.699 L 277.525 864.563 L 317.075 864.563 L 317.075 872.699 L 277.525 872.699 L 277.525 872.699 Z " fill-rule="evenodd" fill="rgb(0,0,0)"/><path d=" M 1187.622 202.054 L 1187.622 210.19 L 1075.978 210.19 L 1075.978 202.054 L 1187.622 202.054 L 1187.622 202.054 Z  M 1187.622 223.524 L 1187.622 231.66 L 1075.978 231.66 L 1075.978 223.524 L 1187.622 223.524 L 1187.622 223.524 Z " fill-rule="evenodd" fill="rgb(0,0,0)"/><path d=" M 1391.022 210.19 L 1343.675 210.19 L 1335.765 223.524 L 1391.022 223.524 L 1391.022 231.66 L 1330.906 231.66 L 1317.346 254.486 L 1309.775 250.644 L 1321.188 231.66 L 1279.378 231.66 L 1279.378 223.524 L 1326.047 223.524 L 1333.957 210.19 L 1279.378 210.19 L 1279.378 202.054 L 1338.816 202.054 L 1353.28 177.985 L 1360.625 181.714 L 1348.534 202.054 L 1391.022 202.054 L 1391.022 210.19 L 1391.022 210.19 Z " fill="rgb(0,0,0)"/><path d=" M 1662.222 191.206 L 1662.222 199.455 L 1482.778 199.455 L 1482.778 191.206 L 1662.222 191.206 L 1662.222 191.206 Z  M 1662.222 212.676 L 1662.222 220.812 L 1482.778 220.812 L 1482.778 212.676 L 1662.222 212.676 L 1662.222 212.676 Z  M 1662.222 234.146 L 1662.222 242.282 L 1482.778 242.282 L 1482.778 234.146 L 1662.222 234.146 L 1662.222 234.146 Z " fill-rule="evenodd" fill="rgb(0,0,0)"/><path d=" M 1780.533 246.35 L 1777.143 238.666 L 1832.739 214.258 L 1777.143 189.85 L 1780.533 182.166 L 1842.57 209.738 L 1842.57 218.778 L 1780.533 246.35 L 1780.533 246.35 Z  M 1841.214 237.649 L 1844.604 244.994 L 1782.68 272.566 L 1779.29 264.882 L 1841.214 237.649 L 1841.214 237.649 Z " fill-rule="evenodd" fill="rgb(0,0,0)"/><path d=" M 1189.078 345.166 L 1219.701 379.631 L 1189.078 414.096 L 1181.959 407.994 L 1198.118 390.366 L 1198.118 390.366 Q 1202.073 385.959 1205.35 383.812 L 1205.35 383.812 L 1112.125 383.812 L 1112.125 375.45 L 1205.35 375.45 L 1205.35 375.45 Q 1203.09 374.094 1202.017 373.021 L 1202.017 373.021 L 1202.017 373.021 Q 1200.943 371.947 1198.118 368.896 L 1198.118 368.896 L 1181.959 351.268 L 1189.078 345.166 L 1189.078 345.166 Z " fill="rgb(0,0,0)"/><path d=" M 1398.128 345.392 L 1428.751 379.857 L 1398.128 414.322 L 1391.009 408.22 L 1398.128 400.423 L 1398.128 400.423 Q 1401.066 397.146 1405.134 394.66 L 1405.134 394.66 L 1315.751 394.66 L 1315.751 386.524 L 1410.897 386.524 L 1416.886 379.857 L 1410.897 373.19 L 1315.751 373.19 L 1315.751 365.054 L 1405.134 365.054 L 1405.134 365.054 Q 1401.292 362.681 1398.128 359.178 L 1398.128 359.178 L 1391.009 351.494 L 1398.128 345.392 L 1398.128 345.392 Z " fill="rgb(0,0,0)"/><path d=" M 1600.398 367.54 L 1631.812 367.54 L 1631.812 375.111 L 1621.642 375.111 L 1621.642 405.847 L 1621.642 405.847 Q 1618.252 410.028 1612.602 413.136 L 1612.602 413.136 L 1612.602 413.136 Q 1606.952 416.243 1598.251 416.243 L 1598.251 416.243 L 1598.251 416.243 Q 1589.889 416.243 1584.183 412.966 L 1584.183 412.966 L 1584.183 412.966 Q 1578.476 409.689 1575.764 404.378 L 1575.764 404.378 L 1575.764 404.378 Q 1573.052 399.067 1573.052 392.965 L 1573.052 392.965 L 1573.052 392.965 Q 1573.052 380.987 1581.414 375.111 L 1581.414 375.111 L 1565.142 375.111 L 1565.142 405.847 L 1565.142 405.847 Q 1561.752 410.028 1556.102 413.136 L 1556.102 413.136 L 1556.102 413.136 Q 1550.452 416.243 1541.751 416.243 L 1541.751 416.243 L 1541.751 416.243 Q 1533.389 416.243 1527.683 412.966 L 1527.683 412.966 L 1527.683 412.966 Q 1521.976 409.689 1519.264 404.378 L 1519.264 404.378 L 1519.264 404.378 Q 1516.552 399.067 1516.552 392.965 L 1516.552 392.965 L 1516.552 392.965 Q 1516.552 384.264 1521.129 378.671 L 1521.129 378.671 L 1521.129 378.671 Q 1525.705 373.077 1534.18 371.269 L 1534.18 371.269 L 1534.18 370.93 L 1534.18 370.93 Q 1527.061 369.235 1523.841 364.828 L 1523.841 364.828 L 1523.841 364.828 Q 1520.62 360.421 1520.62 354.658 L 1520.62 354.658 L 1520.62 354.658 Q 1520.62 349.686 1523.219 345.392 L 1523.219 345.392 L 1523.219 345.392 Q 1525.818 341.098 1530.677 338.556 L 1530.677 338.556 L 1530.677 338.556 Q 1535.536 336.013 1541.977 336.013 L 1541.977 336.013 L 1541.977 336.013 Q 1547.514 336.013 1551.978 337.821 L 1551.978 337.821 L 1551.978 337.821 Q 1556.441 339.629 1560.848 344.488 L 1560.848 344.488 L 1555.198 349.686 L 1555.198 349.686 Q 1552.147 346.296 1549.039 344.714 L 1549.039 344.714 L 1549.039 344.714 Q 1545.932 343.132 1541.864 343.132 L 1541.864 343.132 L 1541.864 343.132 Q 1535.988 343.132 1532.937 346.296 L 1532.937 346.296 L 1532.937 346.296 Q 1529.886 349.46 1529.886 354.658 L 1529.886 354.658 L 1529.886 354.658 Q 1529.886 358.048 1531.75 361.043 L 1531.75 361.043 L 1531.75 361.043 Q 1533.615 364.037 1536.836 365.789 L 1536.836 365.789 L 1536.836 365.789 Q 1540.056 367.54 1543.898 367.54 L 1543.898 367.54 L 1583.109 367.54 L 1583.109 367.54 Q 1577.12 363.133 1577.12 354.658 L 1577.12 354.658 L 1577.12 354.658 Q 1577.12 349.686 1579.719 345.392 L 1579.719 345.392 L 1579.719 345.392 Q 1582.318 341.098 1587.177 338.556 L 1587.177 338.556 L 1587.177 338.556 Q 1592.036 336.013 1598.477 336.013 L 1598.477 336.013 L 1598.477 336.013 Q 1604.014 336.013 1608.478 337.821 L 1608.478 337.821 L 1608.478 337.821 Q 1612.941 339.629 1617.348 344.488 L 1617.348 344.488 L 1611.698 349.686 L 1611.698 349.686 Q 1608.647 346.296 1605.539 344.714 L 1605.539 344.714 L 1605.539 344.714 Q 1602.432 343.132 1598.364 343.132 L 1598.364 343.132 L 1598.364 343.132 Q 1592.488 343.132 1589.437 346.296 L 1589.437 346.296 L 1589.437 346.296 Q 1586.386 349.46 1586.386 354.658 L 1586.386 354.658 L 1586.386 354.658 Q 1586.386 358.048 1588.25 361.043 L 1588.25 361.043 L 1588.25 361.043 Q 1590.115 364.037 1593.336 365.789 L 1593.336 365.789 L 1593.336 365.789 Q 1596.556 367.54 1600.398 367.54 L 1600.398 367.54 L 1600.398 367.54 Z  M 1556.441 402.683 L 1556.441 375.111 L 1542.429 375.111 L 1542.429 375.111 Q 1536.892 375.111 1533.163 377.71 L 1533.163 377.71 L 1533.163 377.71 Q 1529.434 380.309 1527.626 384.321 L 1527.626 384.321 L 1527.626 384.321 Q 1525.818 388.332 1525.818 392.626 L 1525.818 392.626 L 1525.818 392.626 Q 1525.818 399.406 1529.886 403.983 L 1529.886 403.983 L 1529.886 403.983 Q 1533.954 408.559 1541.977 408.559 L 1541.977 408.559 L 1541.977 408.559 Q 1546.723 408.559 1550.452 407.034 L 1550.452 407.034 L 1550.452 407.034 Q 1554.181 405.508 1556.441 402.683 L 1556.441 402.683 L 1556.441 402.683 Z  M 1612.941 402.683 L 1612.941 375.111 L 1598.929 375.111 L 1598.929 375.111 Q 1593.392 375.111 1589.663 377.71 L 1589.663 377.71 L 1589.663 377.71 Q 1585.934 380.309 1584.126 384.321 L 1584.126 384.321 L 1584.126 384.321 Q 1582.318 388.332 1582.318 392.626 L 1582.318 392.626 L 1582.318 392.626 Q 1582.318 399.406 1586.386 403.983 L 1586.386 403.983 L 1586.386 403.983 Q 1590.454 408.559 1598.477 408.559 L 1598.477 408.559 L 1598.477 408.559 Q 1603.223 408.559 1606.952 407.034 L 1606.952 407.034 L 1606.952 407.034 Q 1610.681 405.508 1612.941 402.683 L 1612.941 402.683 L 1612.941 402.683 Z " fill-rule="evenodd" fill="rgb(0,0,0)"/><path d=" M 1759.841 323.809 L 1759.841 426.526 L 1751.366 426.526 L 1751.366 323.809 L 1759.841 323.809 L 1759.841 323.809 Z  M 1800.521 323.809 L 1800.521 426.526 L 1792.046 426.526 L 1792.046 323.809 L 1800.521 323.809 L 1800.521 323.809 Z " fill-rule="evenodd" fill="rgb(0,0,0)"/><path d=" M 1785.844 546.812 L 1785.844 569.299 L 1777.03 569.299 L 1777.03 546.812 L 1755.108 546.812 L 1755.108 538.902 L 1777.03 538.902 L 1777.03 516.415 L 1785.844 516.415 L 1785.844 538.902 L 1833.53 538.902 L 1833.53 516.415 L 1842.344 516.415 L 1842.344 538.902 L 1864.492 538.902 L 1864.492 546.812 L 1842.344 546.812 L 1842.344 569.299 L 1833.53 569.299 L 1833.53 546.812 L 1785.844 546.812 L 1785.844 546.812 Z  M 1708.1 490.651 L 1708.1 490.651 Q 1711.264 490.651 1713.185 492.516 L 1713.185 492.516 L 1713.185 492.516 Q 1715.106 494.38 1715.106 497.318 L 1715.106 497.318 L 1715.106 497.318 Q 1715.106 500.256 1713.185 502.121 L 1713.185 502.121 L 1713.185 502.121 Q 1711.264 503.985 1708.1 503.985 L 1708.1 503.985 L 1708.1 503.985 Q 1705.049 503.985 1703.185 502.121 L 1703.185 502.121 L 1703.185 502.121 Q 1701.32 500.256 1701.32 497.318 L 1701.32 497.318 L 1701.32 497.318 Q 1701.32 494.38 1703.185 492.516 L 1703.185 492.516 L 1703.185 492.516 Q 1705.049 490.651 1708.1 490.651 L 1708.1 490.651 L 1708.1 490.651 Z  M 1715.671 518.449 L 1715.671 570.429 L 1732.395 570.429 L 1732.395 578 L 1687.873 578 L 1687.873 570.429 L 1706.179 570.429 L 1706.179 526.02 L 1688.438 526.02 L 1688.438 518.449 L 1715.671 518.449 L 1715.671 518.449 Z  M 1527.074 501.725 L 1585.269 537.772 L 1585.269 547.49 L 1542.329 574.271 L 1537.244 567.265 L 1577.133 542.631 L 1523.345 509.409 L 1481.874 594.724 L 1474.19 591.334 L 1478.936 581.503 L 1424.244 547.49 L 1424.244 537.659 L 1467.636 510.878 L 1472.269 518.11 L 1432.38 542.631 L 1482.665 573.819 L 1525.04 486.583 L 1532.611 490.199 L 1527.074 501.725 L 1527.074 501.725 Z  M 1225.025 508.279 L 1225.025 535.512 L 1255.535 535.512 L 1255.535 543.422 L 1225.025 543.422 L 1225.025 578 L 1215.194 578 L 1215.194 500.143 L 1261.072 500.143 L 1259.942 508.279 L 1225.025 508.279 L 1225.025 508.279 Z  M 1292.825 508.279 L 1292.825 535.512 L 1323.335 535.512 L 1323.335 543.422 L 1292.825 543.422 L 1292.825 578 L 1282.994 578 L 1282.994 500.143 L 1328.872 500.143 L 1327.742 508.279 L 1292.825 508.279 L 1292.825 508.279 Z  M 1182.424 518.562 L 1188.413 524.551 L 1171.802 541.275 L 1188.413 558.225 L 1182.424 564.214 L 1165.7 547.377 L 1148.75 564.214 L 1142.761 558.225 L 1159.598 541.275 L 1142.761 524.551 L 1148.75 518.562 L 1165.7 535.286 L 1182.424 518.562 L 1182.424 518.562 Z  M 1097.9 498.9 L 1097.9 498.9 Q 1110.33 498.9 1116.828 509.24 L 1116.828 509.24 L 1116.828 509.24 Q 1123.325 519.579 1123.325 539.015 L 1123.325 539.015 L 1123.325 539.015 Q 1123.325 558.564 1116.828 568.904 L 1116.828 568.904 L 1116.828 568.904 Q 1110.33 579.243 1097.9 579.243 L 1097.9 579.243 L 1097.9 579.243 Q 1085.47 579.243 1078.973 568.904 L 1078.973 568.904 L 1078.973 568.904 Q 1072.475 558.564 1072.475 539.015 L 1072.475 539.015 L 1072.475 539.015 Q 1072.475 519.579 1078.973 509.24 L 1078.973 509.24 L 1078.973 509.24 Q 1085.47 498.9 1097.9 498.9 L 1097.9 498.9 L 1097.9 498.9 Z  M 1097.9 506.584 L 1097.9 506.584 Q 1082.419 506.584 1082.419 539.015 L 1082.419 539.015 L 1082.419 539.015 Q 1082.419 571.559 1097.9 571.559 L 1097.9 571.559 L 1097.9 571.559 Q 1113.381 571.559 1113.381 539.015 L 1113.381 539.015 L 1113.381 539.015 Q 1113.381 506.584 1097.9 506.584 L 1097.9 506.584 L 1097.9 506.584 Z  M 1097.9 531.67 L 1097.9 531.67 Q 1101.064 531.67 1103.211 533.817 L 1103.211 533.817 L 1103.211 533.817 Q 1105.358 535.964 1105.358 539.015 L 1105.358 539.015 L 1105.358 539.015 Q 1105.358 542.179 1103.211 544.326 L 1103.211 544.326 L 1103.211 544.326 Q 1101.064 546.473 1097.9 546.473 L 1097.9 546.473 L 1097.9 546.473 Q 1094.736 546.473 1092.646 544.326 L 1092.646 544.326 L 1092.646 544.326 Q 1090.555 542.179 1090.555 539.015 L 1090.555 539.015 L 1090.555 539.015 Q 1090.555 535.964 1092.646 533.817 L 1092.646 533.817 L 1092.646 533.817 Q 1094.736 531.67 1097.9 531.67 L 1097.9 531.67 L 1097.9 531.67 Z " fill-rule="evenodd" fill="rgb(0,0,0)"/><path d=" M 1052.713 752.639 L 1045.029 749.249 L 1093.28 649.583 L 1100.851 653.199 L 1052.713 752.639 L 1052.713 752.639 Z  M 1120.287 672.974 L 1120.965 695.8 L 1099.495 688.116 L 1096.557 697.043 L 1118.479 703.597 L 1104.58 721.677 L 1112.151 727.214 L 1125.033 708.23 L 1137.915 727.214 L 1145.486 721.677 L 1131.587 703.597 L 1153.509 697.043 L 1150.571 688.116 L 1129.101 695.8 L 1129.779 672.974 L 1120.287 672.974 L 1120.287 672.974 Z " fill-rule="evenodd" fill="rgb(0,0,0)"/><path d=" M 1266.622 672.974 L 1267.3 695.8 L 1245.83 688.116 L 1242.892 697.043 L 1264.814 703.597 L 1250.915 721.677 L 1258.486 727.214 L 1271.368 708.23 L 1284.25 727.214 L 1291.821 721.677 L 1277.922 703.597 L 1299.844 697.043 L 1296.906 688.116 L 1275.436 695.8 L 1276.114 672.974 L 1266.622 672.974 L 1266.622 672.974 Z  M 1305.494 752.639 L 1297.81 749.249 L 1346.061 649.583 L 1353.632 653.199 L 1305.494 752.639 L 1305.494 752.639 Z " fill-rule="evenodd" fill="rgb(0,0,0)"/><path d=" M 1634.211 689.472 L 1624.154 689.472 L 1620.877 714.558 L 1630.03 714.558 L 1630.03 721.79 L 1619.747 721.79 L 1617.374 741 L 1609.351 741 L 1611.837 721.79 L 1595.452 721.79 L 1592.853 741 L 1584.83 741 L 1587.316 721.79 L 1551.947 721.79 L 1549.574 741 L 1541.551 741 L 1544.037 721.79 L 1527.652 721.79 L 1525.053 741 L 1517.03 741 L 1519.516 721.79 L 1484.147 721.79 L 1481.774 741 L 1473.751 741 L 1476.237 721.79 L 1459.852 721.79 L 1457.253 741 L 1449.23 741 L 1451.716 721.79 L 1442.789 721.79 L 1442.789 714.558 L 1452.62 714.558 L 1456.123 689.472 L 1446.97 689.472 L 1446.97 682.014 L 1457.027 682.014 L 1459.626 663.143 L 1467.649 663.143 L 1465.05 682.014 L 1481.548 682.014 L 1484.147 663.143 L 1492.17 663.143 L 1489.571 682.014 L 1524.827 682.014 L 1527.426 663.143 L 1535.449 663.143 L 1532.85 682.014 L 1549.348 682.014 L 1551.947 663.143 L 1559.97 663.143 L 1557.371 682.014 L 1592.627 682.014 L 1595.226 663.143 L 1603.249 663.143 L 1600.65 682.014 L 1617.148 682.014 L 1619.747 663.143 L 1627.77 663.143 L 1625.171 682.014 L 1634.211 682.014 L 1634.211 689.472 L 1634.211 689.472 Z  M 1477.141 714.558 L 1480.644 689.472 L 1464.033 689.472 L 1460.756 714.558 L 1477.141 714.558 L 1477.141 714.558 Z  M 1520.42 714.558 L 1523.923 689.472 L 1488.554 689.472 L 1485.277 714.558 L 1520.42 714.558 L 1520.42 714.558 Z  M 1544.941 714.558 L 1548.444 689.472 L 1531.833 689.472 L 1528.556 714.558 L 1544.941 714.558 L 1544.941 714.558 Z  M 1588.22 714.558 L 1591.723 689.472 L 1556.354 689.472 L 1553.077 714.558 L 1588.22 714.558 L 1588.22 714.558 Z  M 1612.741 714.558 L 1616.244 689.472 L 1599.633 689.472 L 1596.356 714.558 L 1612.741 714.558 L 1612.741 714.558 Z " fill-rule="evenodd" fill="rgb(0,0,0)"/><path d=" M 1804.954 658.736 L 1805.632 681.562 L 1784.162 673.878 L 1781.224 682.805 L 1803.146 689.359 L 1789.247 707.439 L 1796.818 712.976 L 1809.7 693.992 L 1822.582 712.976 L 1830.153 707.439 L 1816.254 689.359 L 1838.176 682.805 L 1835.238 673.878 L 1813.768 681.562 L 1814.446 658.736 L 1804.954 658.736 L 1804.954 658.736 Z  M 1748.454 675.686 L 1749.132 698.512 L 1727.662 690.828 L 1724.724 699.755 L 1746.646 706.309 L 1732.747 724.389 L 1740.318 729.926 L 1753.2 710.942 L 1766.082 729.926 L 1773.653 724.389 L 1759.754 706.309 L 1781.676 699.755 L 1778.738 690.828 L 1757.268 698.512 L 1757.946 675.686 L 1748.454 675.686 L 1748.454 675.686 Z  M 1861.454 675.686 L 1862.132 698.512 L 1840.662 690.828 L 1837.724 699.755 L 1859.646 706.309 L 1845.747 724.389 L 1853.318 729.926 L 1866.2 710.942 L 1879.082 729.926 L 1886.653 724.389 L 1872.754 706.309 L 1894.676 699.755 L 1891.738 690.828 L 1870.268 698.512 L 1870.946 675.686 L 1861.454 675.686 L 1861.454 675.686 Z " fill-rule="evenodd" fill="rgb(0,0,0)"/><path d=" M 1136.885 826.143 L 1135.868 878.349 L 1127.393 878.349 L 1126.263 826.143 L 1136.885 826.143 L 1136.885 826.143 Z  M 1097.222 834.166 L 1104.341 840.268 L 1088.182 857.896 L 1088.182 857.896 Q 1085.357 860.947 1084.284 862.021 L 1084.284 862.021 L 1084.284 862.021 Q 1083.21 863.094 1080.95 864.45 L 1080.95 864.45 L 1115.076 864.45 L 1115.076 872.812 L 1080.95 872.812 L 1080.95 872.812 Q 1084.227 874.959 1088.182 879.366 L 1088.182 879.366 L 1104.341 896.994 L 1097.222 903.096 L 1066.599 868.631 L 1097.222 834.166 L 1097.222 834.166 Z  M 1149.428 872.699 L 1149.428 864.563 L 1321.075 864.563 L 1321.075 872.699 L 1149.428 872.699 L 1149.428 872.699 Z  M 1131.687 890.101 L 1131.687 890.101 Q 1134.964 890.101 1137.111 892.305 L 1137.111 892.305 L 1137.111 892.305 Q 1139.258 894.508 1139.258 897.672 L 1139.258 897.672 L 1139.258 897.672 Q 1139.258 900.949 1137.111 903.096 L 1137.111 903.096 L 1137.111 903.096 Q 1134.964 905.243 1131.687 905.243 L 1131.687 905.243 L 1131.687 905.243 Q 1128.41 905.243 1126.263 903.04 L 1126.263 903.04 L 1126.263 903.04 Q 1124.116 900.836 1124.116 897.672 L 1124.116 897.672 L 1124.116 897.672 Q 1124.116 894.508 1126.32 892.305 L 1126.32 892.305 L 1126.32 892.305 Q 1128.523 890.101 1131.687 890.101 L 1131.687 890.101 L 1131.687 890.101 Z " fill-rule="evenodd" fill="rgb(0,0,0)"/><path d=" M 1561.878 834.166 L 1592.501 868.631 L 1561.878 903.096 L 1554.759 896.994 L 1570.918 879.366 L 1570.918 879.366 Q 1574.873 874.959 1578.15 872.812 L 1578.15 872.812 L 1417.125 872.812 L 1417.125 864.45 L 1578.15 864.45 L 1578.15 864.45 Q 1575.89 863.094 1574.817 862.021 L 1574.817 862.021 L 1574.817 862.021 Q 1573.743 860.947 1570.918 857.896 L 1570.918 857.896 L 1554.759 840.268 L 1561.878 834.166 L 1561.878 834.166 Z " fill="rgb(0,0,0)"/><path d=" M 1857.26 844.449 L 1866.526 844.449 L 1856.13 904 L 1842.683 904 L 1834.999 860.382 L 1825.62 904 L 1811.947 904 L 1805.054 860.382 L 1797.709 904 L 1783.697 904 L 1776.239 860.382 L 1768.103 904 L 1754.543 904 L 1746.859 860.382 L 1739.062 904 L 1725.05 904 L 1717.479 860.382 L 1709.23 904 L 1696.122 904 L 1685.274 844.449 L 1694.992 844.449 L 1702.563 898.124 L 1712.055 852.02 L 1723.242 852.02 L 1732.056 898.124 L 1741.322 852.02 L 1752.735 852.02 L 1761.549 898.124 L 1770.815 852.02 L 1782.115 852.02 L 1790.703 898.124 L 1799.517 852.02 L 1810.93 852.02 L 1818.84 898.124 L 1829.575 852.02 L 1840.762 852.02 L 1849.689 898.124 L 1857.26 844.449 L 1857.26 844.449 Z " fill="rgb(0,0,0)"/></g><clipPath id="_clipPath_6Bc1ky19vsHvODm1TDBzJQt2tGut9ic8"><path d=" M 0 1028.247 L 977.842 1028.247 L 977.842 956.497 L 0 956.497 L 0 1028.247 Z " fill="rgb(255,255,255)"/></clipPath><g clip-path="url(#_clipPath_6Bc1ky19vsHvODm1TDBzJQt2tGut9ic8)"><path d=" M 481.491 1010 L 471.989 1010 L 471.989 964.37 L 482.892 964.37 L 490.514 984.878 L 493.249 992.842 L 493.522 992.842 L 496.257 984.878 L 503.674 964.37 L 514.611 964.37 L 514.611 1010 L 504.938 1010 L 504.938 993.286 L 504.938 993.286 Q 504.938 989.731 506.271 977.734 L 506.271 977.734 L 505.998 977.734 L 502.272 988.296 L 495.231 1006.001 L 491.095 1006.001 L 484.089 988.296 L 480.431 977.734 L 480.158 977.734 L 480.158 977.734 Q 481.491 989.697 481.491 993.286 L 481.491 993.286 L 481.491 1010 L 481.491 1010 Z  M 527.394 1005.916 L 527.394 1005.916 L 527.394 1005.916 Q 522.438 1000.977 522.438 992.637 L 522.438 992.637 L 522.438 992.637 Q 522.438 984.297 527.411 979.375 L 527.411 979.375 L 527.411 979.375 Q 532.384 974.453 539.357 974.453 L 539.357 974.453 L 539.357 974.453 Q 546.295 974.453 551.268 979.375 L 551.268 979.375 L 551.268 979.375 Q 556.242 984.297 556.242 992.637 L 556.242 992.637 L 556.242 992.637 Q 556.242 1000.977 551.268 1005.916 L 551.268 1005.916 L 551.268 1005.916 Q 546.295 1010.854 539.357 1010.854 L 539.357 1010.854 L 539.357 1010.854 Q 532.35 1010.854 527.394 1005.916 Z  M 534.606 985.391 L 534.606 985.391 L 534.606 985.391 Q 532.999 988.022 532.999 992.637 L 532.999 992.637 L 532.999 992.637 Q 532.999 997.251 534.606 999.883 L 534.606 999.883 L 534.606 999.883 Q 536.212 1002.515 539.357 1002.515 L 539.357 1002.515 L 539.357 1002.515 Q 542.433 1002.515 544.091 999.883 L 544.091 999.883 L 544.091 999.883 Q 545.748 997.251 545.748 992.637 L 545.748 992.637 L 545.748 992.637 Q 545.748 988.022 544.091 985.391 L 544.091 985.391 L 544.091 985.391 Q 542.433 982.759 539.357 982.759 L 539.357 982.759 L 539.357 982.759 Q 536.212 982.759 534.606 985.391 Z  M 573.57 1010 L 563.282 1010 L 563.282 975.273 L 571.69 975.273 L 572.374 979.683 L 572.682 979.683 L 572.682 979.683 Q 578.184 974.453 583.722 974.453 L 583.722 974.453 L 583.722 974.453 Q 583.756 974.453 583.79 974.453 L 583.79 974.453 L 583.79 974.453 Q 594.557 974.453 594.591 988.433 L 594.591 988.433 L 594.591 1010 L 584.303 1010 L 584.303 989.766 L 584.303 989.766 Q 584.303 986.04 583.277 984.622 L 583.277 984.622 L 583.277 984.622 Q 582.252 983.203 580.03 983.203 L 580.03 983.203 L 580.03 983.203 Q 578.219 983.203 576.8 983.972 L 576.8 983.972 L 576.8 983.972 Q 575.382 984.741 573.57 986.553 L 573.57 986.553 L 573.57 1010 L 573.57 1010 Z  M 606.246 1005.916 L 606.246 1005.916 L 606.246 1005.916 Q 601.289 1000.977 601.289 992.637 L 601.289 992.637 L 601.289 992.637 Q 601.289 984.297 606.263 979.375 L 606.263 979.375 L 606.263 979.375 Q 611.236 974.453 618.208 974.453 L 618.208 974.453 L 618.208 974.453 Q 625.147 974.453 630.12 979.375 L 630.12 979.375 L 630.12 979.375 Q 635.093 984.297 635.093 992.637 L 635.093 992.637 L 635.093 992.637 Q 635.093 1000.977 630.12 1005.916 L 630.12 1005.916 L 630.12 1005.916 Q 625.147 1010.854 618.208 1010.854 L 618.208 1010.854 L 618.208 1010.854 Q 611.202 1010.854 606.246 1005.916 Z  M 613.457 985.391 L 613.457 985.391 L 613.457 985.391 Q 611.851 988.022 611.851 992.637 L 611.851 992.637 L 611.851 992.637 Q 611.851 997.251 613.457 999.883 L 613.457 999.883 L 613.457 999.883 Q 615.064 1002.515 618.208 1002.515 L 618.208 1002.515 L 618.208 1002.515 Q 621.285 1002.515 622.942 999.883 L 622.942 999.883 L 622.942 999.883 Q 624.6 997.251 624.6 992.637 L 624.6 992.637 L 624.6 992.637 Q 624.6 988.022 622.942 985.391 L 622.942 985.391 L 622.942 985.391 Q 621.285 982.759 618.208 982.759 L 618.208 982.759 L 618.208 982.759 Q 615.064 982.759 613.457 985.391 Z  M 346.688 1010 L 336.332 1010 L 336.332 964.37 L 365.146 964.37 L 365.146 973.052 L 346.688 973.052 L 346.688 983.613 L 362.445 983.613 L 362.445 992.295 L 346.688 992.295 L 346.688 1010 L 346.688 1010 Z  M 373.006 968.677 L 373.006 968.677 L 373.006 968.677 Q 371.332 967.173 371.332 964.78 L 371.332 964.78 L 371.332 964.78 Q 371.332 962.388 373.006 960.918 L 373.006 960.918 L 373.006 960.918 Q 374.681 959.448 377.279 959.448 L 377.279 959.448 L 377.279 959.448 Q 379.945 959.448 381.586 960.918 L 381.586 960.918 L 381.586 960.918 Q 383.226 962.388 383.226 964.78 L 383.226 964.78 L 383.226 964.78 Q 383.226 967.173 381.534 968.677 L 381.534 968.677 L 381.534 968.677 Q 379.842 970.181 377.262 970.181 L 377.262 970.181 L 377.262 970.181 Q 374.681 970.181 373.006 968.677 Z  M 382.44 1010 L 372.152 1010 L 372.152 975.273 L 382.44 975.273 L 382.44 1010 L 382.44 1010 Z  M 401.751 1010 L 391.463 1010 L 391.463 975.273 L 399.871 975.273 L 400.555 981.357 L 400.862 981.357 L 400.862 981.357 Q 402.674 977.939 405.289 976.196 L 405.289 976.196 L 405.289 976.196 Q 407.903 974.453 410.706 974.453 L 410.706 974.453 L 410.706 974.453 Q 413.235 974.453 414.842 975.137 L 414.842 975.137 L 413.167 984.023 L 413.167 984.023 Q 411.15 983.477 409.373 983.477 L 409.373 983.477 L 409.373 983.477 Q 407.22 983.477 405.118 985.015 L 405.118 985.015 L 405.118 985.015 Q 403.016 986.553 401.751 989.834 L 401.751 989.834 L 401.751 1010 L 401.751 1010 Z  M 418.054 1000.327 L 418.054 1000.327 L 418.054 1000.327 Q 418.054 994.79 422.72 991.748 L 422.72 991.748 L 422.72 991.748 Q 427.385 988.706 437.605 987.681 L 437.605 987.681 L 437.605 987.681 Q 437.263 982.656 432.136 982.622 L 432.136 982.622 L 432.136 982.622 Q 428.274 982.622 422.908 985.767 L 422.908 985.767 L 419.251 978.999 L 419.251 978.999 Q 426.804 974.453 434.085 974.453 L 434.085 974.453 L 434.085 974.453 Q 447.859 974.453 447.893 990.107 L 447.893 990.107 L 447.893 1010 L 439.485 1010 L 438.699 1006.445 L 438.494 1006.445 L 438.494 1006.445 Q 433.469 1010.854 428.342 1010.854 L 428.342 1010.854 L 428.342 1010.854 Q 423.728 1010.854 420.891 1007.83 L 420.891 1007.83 L 420.891 1007.83 Q 418.054 1004.805 418.054 1000.327 Z  M 427.864 999.575 L 427.864 999.575 L 427.864 999.575 Q 427.864 1002.856 431.863 1002.856 L 431.863 1002.856 L 431.863 1002.856 Q 434.666 1002.856 437.605 999.917 L 437.605 999.917 L 437.605 993.833 L 437.605 993.833 Q 427.864 995.166 427.864 999.575 Z " fill-rule="evenodd" fill="rgb(231,112,90)"/></g><clipPath id="_clipPath_yUBfjr3UGSH2zVPieCxGriZzKvcQ5AB9"><path d=" M 942.158 1028.247 L 1920 1028.247 L 1920 956.497 L 942.158 956.497 L 942.158 1028.247 Z " fill="rgb(255,255,255)"/></clipPath><g clip-path="url(#_clipPath_yUBfjr3UGSH2zVPieCxGriZzKvcQ5AB9)"><path d=" M 1431.802 987.476 L 1431.802 987.476 L 1431.802 987.476 Q 1431.802 976.47 1438.108 969.993 L 1438.108 969.993 L 1438.108 969.993 Q 1444.414 963.516 1453.574 963.516 L 1453.574 963.516 L 1453.574 963.516 Q 1461.264 963.516 1467.075 969.463 L 1467.075 969.463 L 1461.401 975.854 L 1461.401 975.854 Q 1457.607 972.437 1453.711 972.402 L 1453.711 972.402 L 1453.711 972.402 Q 1448.823 972.402 1445.593 976.401 L 1445.593 976.401 L 1445.593 976.401 Q 1442.363 980.4 1442.363 987.1 L 1442.363 987.1 L 1442.363 987.1 Q 1442.363 994.038 1445.388 997.986 L 1445.388 997.986 L 1445.388 997.986 Q 1448.413 1001.934 1453.437 1001.934 L 1453.437 1001.934 L 1453.437 1001.934 Q 1458.393 1001.934 1462.119 997.9 L 1462.119 997.9 L 1467.793 1004.121 L 1467.793 1004.121 Q 1462.051 1010.854 1453.301 1010.854 L 1453.301 1010.854 L 1453.301 1010.854 Q 1444.004 1010.854 1437.903 1004.702 L 1437.903 1004.702 L 1437.903 1004.702 Q 1431.802 998.55 1431.802 987.476 Z  M 1476.713 1005.916 L 1476.713 1005.916 L 1476.713 1005.916 Q 1471.757 1000.977 1471.757 992.637 L 1471.757 992.637 L 1471.757 992.637 Q 1471.757 984.297 1476.73 979.375 L 1476.73 979.375 L 1476.73 979.375 Q 1481.703 974.453 1488.676 974.453 L 1488.676 974.453 L 1488.676 974.453 Q 1495.615 974.453 1500.588 979.375 L 1500.588 979.375 L 1500.588 979.375 Q 1505.561 984.297 1505.561 992.637 L 1505.561 992.637 L 1505.561 992.637 Q 1505.561 1000.977 1500.588 1005.916 L 1500.588 1005.916 L 1500.588 1005.916 Q 1495.615 1010.854 1488.676 1010.854 L 1488.676 1010.854 L 1488.676 1010.854 Q 1481.669 1010.854 1476.713 1005.916 Z  M 1483.925 985.391 L 1483.925 985.391 L 1483.925 985.391 Q 1482.319 988.022 1482.319 992.637 L 1482.319 992.637 L 1482.319 992.637 Q 1482.319 997.251 1483.925 999.883 L 1483.925 999.883 L 1483.925 999.883 Q 1485.532 1002.515 1488.676 1002.515 L 1488.676 1002.515 L 1488.676 1002.515 Q 1491.752 1002.515 1493.41 999.883 L 1493.41 999.883 L 1493.41 999.883 Q 1495.068 997.251 1495.068 992.637 L 1495.068 992.637 L 1495.068 992.637 Q 1495.068 988.022 1493.41 985.391 L 1493.41 985.391 L 1493.41 985.391 Q 1491.752 982.759 1488.676 982.759 L 1488.676 982.759 L 1488.676 982.759 Q 1485.532 982.759 1483.925 985.391 Z  M 1510.79 992.637 L 1510.79 992.637 L 1510.79 992.637 Q 1510.79 984.434 1515.097 979.443 L 1515.097 979.443 L 1515.097 979.443 Q 1519.403 974.453 1525.214 974.453 L 1525.214 974.453 L 1525.214 974.453 Q 1529.896 974.453 1533.759 978.076 L 1533.759 978.076 L 1533.314 972.744 L 1533.314 960.918 L 1543.602 960.918 L 1543.602 1010 L 1535.228 1010 L 1534.511 1006.582 L 1534.237 1006.582 L 1534.237 1006.582 Q 1529.965 1010.854 1525.009 1010.854 L 1525.009 1010.854 L 1525.009 1010.854 Q 1518.515 1010.854 1514.652 1005.984 L 1514.652 1005.984 L 1514.652 1005.984 Q 1510.79 1001.113 1510.79 992.637 Z  M 1521.351 992.5 L 1521.351 992.5 L 1521.351 992.5 Q 1521.351 1002.446 1527.64 1002.446 L 1527.64 1002.446 L 1527.64 1002.446 Q 1530.99 1002.446 1533.314 999.302 L 1533.314 999.302 L 1533.314 985.083 L 1533.314 985.083 Q 1530.853 982.827 1527.572 982.827 L 1527.572 982.827 L 1527.572 982.827 Q 1524.906 982.827 1523.129 985.322 L 1523.129 985.322 L 1523.129 985.322 Q 1521.351 987.817 1521.351 992.5 Z  M 1550.677 992.637 L 1550.677 992.637 L 1550.677 992.637 Q 1550.677 984.502 1555.565 979.478 L 1555.565 979.478 L 1555.565 979.478 Q 1560.453 974.453 1567.049 974.453 L 1567.049 974.453 L 1567.049 974.453 Q 1574.193 974.453 1578.004 979.067 L 1578.004 979.067 L 1578.004 979.067 Q 1581.815 983.682 1581.815 991.099 L 1581.815 991.099 L 1581.815 991.099 Q 1581.815 993.765 1581.405 995.439 L 1581.405 995.439 L 1560.623 995.439 L 1560.623 995.439 Q 1561.956 1002.993 1569.647 1002.993 L 1569.647 1002.993 L 1569.647 1002.993 Q 1573.372 1002.993 1577.132 1000.703 L 1577.132 1000.703 L 1580.55 1006.924 L 1580.55 1006.924 Q 1574.808 1010.854 1568.246 1010.854 L 1568.246 1010.854 L 1568.246 1010.854 Q 1560.623 1010.854 1555.65 1005.95 L 1555.65 1005.95 L 1555.65 1005.95 Q 1550.677 1001.045 1550.677 992.637 Z  M 1560.521 989.082 L 1560.521 989.082 L 1573.065 989.082 L 1573.065 989.082 Q 1573.065 982.28 1567.254 982.28 L 1567.254 982.28 L 1567.254 982.28 Q 1564.725 982.28 1562.862 984.006 L 1562.862 984.006 L 1562.862 984.006 Q 1560.999 985.732 1560.521 989.082 Z  M 1308.688 1010 L 1298.332 1010 L 1298.332 964.37 L 1327.146 964.37 L 1327.146 973.052 L 1308.688 973.052 L 1308.688 983.613 L 1324.445 983.613 L 1324.445 992.295 L 1308.688 992.295 L 1308.688 1010 L 1308.688 1010 Z  M 1335.006 968.677 L 1335.006 968.677 L 1335.006 968.677 Q 1333.332 967.173 1333.332 964.78 L 1333.332 964.78 L 1333.332 964.78 Q 1333.332 962.388 1335.006 960.918 L 1335.006 960.918 L 1335.006 960.918 Q 1336.681 959.448 1339.279 959.448 L 1339.279 959.448 L 1339.279 959.448 Q 1341.945 959.448 1343.586 960.918 L 1343.586 960.918 L 1343.586 960.918 Q 1345.226 962.388 1345.226 964.78 L 1345.226 964.78 L 1345.226 964.78 Q 1345.226 967.173 1343.534 968.677 L 1343.534 968.677 L 1343.534 968.677 Q 1341.842 970.181 1339.262 970.181 L 1339.262 970.181 L 1339.262 970.181 Q 1336.681 970.181 1335.006 968.677 Z  M 1344.44 1010 L 1334.152 1010 L 1334.152 975.273 L 1344.44 975.273 L 1344.44 1010 L 1344.44 1010 Z  M 1363.751 1010 L 1353.463 1010 L 1353.463 975.273 L 1361.871 975.273 L 1362.555 981.357 L 1362.862 981.357 L 1362.862 981.357 Q 1364.674 977.939 1367.289 976.196 L 1367.289 976.196 L 1367.289 976.196 Q 1369.903 974.453 1372.706 974.453 L 1372.706 974.453 L 1372.706 974.453 Q 1375.235 974.453 1376.842 975.137 L 1376.842 975.137 L 1375.167 984.023 L 1375.167 984.023 Q 1373.15 983.477 1371.373 983.477 L 1371.373 983.477 L 1371.373 983.477 Q 1369.22 983.477 1367.118 985.015 L 1367.118 985.015 L 1367.118 985.015 Q 1365.016 986.553 1363.751 989.834 L 1363.751 989.834 L 1363.751 1010 L 1363.751 1010 Z  M 1380.054 1000.327 L 1380.054 1000.327 L 1380.054 1000.327 Q 1380.054 994.79 1384.72 991.748 L 1384.72 991.748 L 1384.72 991.748 Q 1389.385 988.706 1399.605 987.681 L 1399.605 987.681 L 1399.605 987.681 Q 1399.263 982.656 1394.136 982.622 L 1394.136 982.622 L 1394.136 982.622 Q 1390.274 982.622 1384.908 985.767 L 1384.908 985.767 L 1381.251 978.999 L 1381.251 978.999 Q 1388.804 974.453 1396.085 974.453 L 1396.085 974.453 L 1396.085 974.453 Q 1409.859 974.453 1409.893 990.107 L 1409.893 990.107 L 1409.893 1010 L 1401.485 1010 L 1400.699 1006.445 L 1400.494 1006.445 L 1400.494 1006.445 Q 1395.469 1010.854 1390.342 1010.854 L 1390.342 1010.854 L 1390.342 1010.854 Q 1385.728 1010.854 1382.891 1007.83 L 1382.891 1007.83 L 1382.891 1007.83 Q 1380.054 1004.805 1380.054 1000.327 Z  M 1389.864 999.575 L 1389.864 999.575 L 1389.864 999.575 Q 1389.864 1002.856 1393.863 1002.856 L 1393.863 1002.856 L 1393.863 1002.856 Q 1396.666 1002.856 1399.605 999.917 L 1399.605 999.917 L 1399.605 993.833 L 1399.605 993.833 Q 1389.864 995.166 1389.864 999.575 Z " fill-rule="evenodd" fill="rgb(231,112,90)"/></g></g></svg>